<svg width="25" height="24" viewBox="0 0 25 24" fill="none" xmlns="http://www.w3.org/2000/svg">
<g id="tab bar icon">
<path id="Vector" fill-rule="evenodd" clip-rule="evenodd" d="M9.65802 5C9.28939 5 8.96805 5.25089 8.87865 5.60852L7.59887 10.7276C7.265 12.0631 6.06505 13 4.68845 13H3.25C2.69772 13 2.25 12.5523 2.25 12C2.25 11.4477 2.69772 11 3.25 11H4.68845C5.14731 11 5.5473 10.6877 5.65859 10.2425L6.93836 5.12345C7.25035 3.87548 8.37165 3 9.65802 3C11.0718 3 12.2644 4.05276 12.4397 5.45565L14.0448 18.2963C14.0951 18.6983 14.4368 19 14.842 19C15.2106 19 15.5319 18.7491 15.6214 18.3915L16.9011 13.2724C17.235 11.9369 18.435 11 19.8116 11H21.25C21.8023 11 22.25 11.4477 22.25 12C22.25 12.5523 21.8023 13 21.25 13H19.8116C19.3527 13 18.9527 13.3123 18.8414 13.7575L17.5616 18.8766C17.2496 20.1245 16.1283 21 14.842 21C13.4282 21 12.2356 19.9472 12.0603 18.5444L10.4552 5.70372C10.4049 5.30169 10.0632 5 9.65802 5Z" fill="#23262F"/>
</g>
</svg>
